<svg width="62" height="65" viewBox="0 0 62 65" fill="none" xmlns="http://www.w3.org/2000/svg">
<path d="M28.7395 7.45684L29.2217 7.36897L28.7395 7.45685C30.5276 17.2683 38.2057 24.9465 48.0171 26.7345L52.3145 27.5177L48.0171 28.3008C38.2057 30.0889 30.5276 37.767 28.7395 47.5785L27.9564 51.8758L27.1732 47.5785C25.3851 37.767 17.7069 30.0889 7.89551 28.3008L3.59812 27.5177L7.8955 26.7345C17.7069 24.9465 25.3851 17.2683 27.1732 7.45685L27.9564 3.15952L28.7395 7.45684ZM49.5035 61.9405L49.4448 61.6179C48.6512 57.264 45.244 53.8567 40.8901 53.0633L40.5673 53.0045L40.8901 52.9456C45.244 52.1522 48.6512 48.7449 49.4448 44.391L49.5035 44.0685L49.5623 44.391C50.3559 48.7449 53.7631 52.1522 58.117 52.9456L58.4398 53.0045L58.117 53.0633C53.7631 53.8567 50.3559 57.264 49.5623 61.6179L49.5035 61.9405Z" stroke="#B3AFFF"/>
</svg>
