<svg width="62" height="66" viewBox="0 0 62 66" fill="none" xmlns="http://www.w3.org/2000/svg">
<path d="M29.2314 7.73744L27.9564 0.740906L26.6813 7.73744C24.9305 17.3442 17.4126 24.8621 7.80586 26.6128L0.809326 27.8879L7.80586 29.163C17.4126 30.9137 24.9305 38.4316 26.6813 48.0384L27.9564 55.0349L29.2314 48.0384C30.9822 38.4316 38.5001 30.9137 48.1067 29.163L55.1033 27.8879L48.1067 26.6128C38.5001 24.8621 30.9822 17.3442 29.2314 7.73744Z" fill="#B3AFFF"/>
<path d="M50.0542 44.6716L49.5036 41.6498L48.9529 44.6716C48.1966 48.8208 44.9496 52.0679 40.8004 52.824L37.7786 53.3747L40.8004 53.9254C44.9496 54.6816 48.1966 57.9286 48.9529 62.0778L49.5036 65.0997L50.0542 62.0778C50.8104 57.9286 54.0575 54.6816 58.2066 53.9254L61.2285 53.3747L58.2066 52.824C54.0575 52.0679 50.8104 48.8208 50.0542 44.6716Z" fill="#B3AFFF"/>
</svg>
